<?xml version="1.0" encoding="UTF-8"?>
<!DOCTYPE svg PUBLIC "-//W3C//DTD SVG 1.1//EN" "http://www.w3.org/Graphics/SVG/1.1/DTD/svg11.dtd">
<svg xmlns="http://www.w3.org/2000/svg" version="1.1" width="106px" height="88px" style="shape-rendering:geometricPrecision; text-rendering:geometricPrecision; image-rendering:optimizeQuality; fill-rule:evenodd; clip-rule:evenodd" xmlns:xlink="http://www.w3.org/1999/xlink">
<g><path style="opacity:0.871" fill="#fdfdfe" d="M 47.5,-0.5 C 50.5,-0.5 53.5,-0.5 56.5,-0.5C 58.8061,1.13942 60.8061,3.13942 62.5,5.5C 57.0722,4.15849 51.7389,2.82516 46.5,1.5C 46.8333,0.833333 47.1667,0.166667 47.5,-0.5 Z"/></g>
<g><path style="opacity:0.998" fill="#f6f2f8" d="M 46.5,1.5 C 51.7389,2.82516 57.0722,4.15849 62.5,5.5C 62.5,5.83333 62.5,6.16667 62.5,6.5C 62.631,7.23891 62.4643,7.90558 62,8.5C 56.6178,6.96656 51.1178,5.79989 45.5,5C 44.944,4.61742 44.6107,4.11742 44.5,3.5C 44.8333,2.5 45.5,1.83333 46.5,1.5 Z"/></g>
<g><path style="opacity:0.996" fill="#eae3f0" d="M 42.5,6.5 C 49.5338,7.64776 56.5338,8.98109 63.5,10.5C 63.5,10.8333 63.5,11.1667 63.5,11.5C 56.7867,10.6557 50.1201,9.48906 43.5,8C 42.944,7.61742 42.6107,7.11742 42.5,6.5 Z"/></g>
<g><path style="opacity:0.943" fill="#f0eaf4" d="M 44.5,3.5 C 44.6107,4.11742 44.944,4.61742 45.5,5C 51.1178,5.79989 56.6178,6.96656 62,8.5C 62.4643,7.90558 62.631,7.23891 62.5,6.5C 63.4345,7.56764 63.7678,8.90097 63.5,10.5C 56.5338,8.98109 49.5338,7.64776 42.5,6.5C 42.427,4.97306 43.0937,3.97306 44.5,3.5 Z"/></g>
<g><path style="opacity:1" fill="#e6dded" d="M 42.5,6.5 C 42.6107,7.11742 42.944,7.61742 43.5,8C 50.1201,9.48906 56.7867,10.6557 63.5,11.5C 63.5,12.1667 63.5,12.8333 63.5,13.5C 55.9508,11.7601 48.6175,10.4268 41.5,9.5C 41.2627,8.20895 41.596,7.20895 42.5,6.5 Z"/></g>
<g><path style="opacity:0.992" fill="#e1d7e9" d="M 41.5,9.5 C 48.6175,10.4268 55.9508,11.7601 63.5,13.5C 63.5,14.1667 63.5,14.8333 63.5,15.5C 56.2057,13.951 48.8724,12.6176 41.5,11.5C 41.5,10.8333 41.5,10.1667 41.5,9.5 Z"/></g>
<g><path style="opacity:1" fill="#dcd0e6" d="M 41.5,11.5 C 48.8724,12.6176 56.2057,13.951 63.5,15.5C 63.5,16.1667 63.1667,16.5 62.5,16.5C 55.832,15.4997 49.1653,14.4997 42.5,13.5C 42.1667,13.5 41.8333,13.5 41.5,13.5C 41.5,12.8333 41.5,12.1667 41.5,11.5 Z"/></g>
<g><path style="opacity:0.991" fill="#d8cae3" d="M 42.5,13.5 C 49.1653,14.4997 55.832,15.4997 62.5,16.5C 62.573,18.0269 61.9063,19.0269 60.5,19.5C 60.3893,18.8826 60.056,18.3826 59.5,18C 53.5274,17.1798 47.8607,15.6798 42.5,13.5 Z"/></g>
<g><path style="opacity:0.94" fill="#cfbddc" d="M 42.5,16.5 C 48.5404,17.2845 54.5404,18.2845 60.5,19.5C 60.5,20.8333 59.8333,21.5 58.5,21.5C 53.5363,20.3426 48.5363,19.3426 43.5,18.5C 42.6618,18.1583 42.3284,17.4916 42.5,16.5 Z"/></g>
<g><path style="opacity:0.999" fill="#d3c4df" d="M 41.5,13.5 C 41.8333,13.5 42.1667,13.5 42.5,13.5C 47.8607,15.6798 53.5274,17.1798 59.5,18C 60.056,18.3826 60.3893,18.8826 60.5,19.5C 54.5404,18.2845 48.5404,17.2845 42.5,16.5C 41.596,15.791 41.2627,14.791 41.5,13.5 Z"/></g>
<g><path style="opacity:0.865" fill="#c4afd4" d="M 44.5,20.5 C 48.8072,21.3266 53.1405,21.9933 57.5,22.5C 52.819,24.9231 48.4856,24.2564 44.5,20.5 Z"/></g>
<g><path style="opacity:0.999" fill="#cab6d8" d="M 43.5,18.5 C 48.5363,19.3426 53.5363,20.3426 58.5,21.5C 58.5,22.1667 58.1667,22.5 57.5,22.5C 53.1405,21.9933 48.8072,21.3266 44.5,20.5C 44.1667,19.8333 43.8333,19.1667 43.5,18.5 Z"/></g>
<g><path style="opacity:0.968" fill="#fbf8fb" d="M 64.5,32.5 C 56.8333,33.8333 49.1667,33.8333 41.5,32.5C 49.1538,31.2023 56.8204,31.2023 64.5,32.5 Z"/></g>
<g><path style="opacity:0.941" fill="#f5f0f6" d="M 41.5,32.5 C 49.1667,33.8333 56.8333,33.8333 64.5,32.5C 66.9872,33.3228 69.3206,34.3228 71.5,35.5C 59.3217,35.8284 47.3217,35.4951 35.5,34.5C 37.4214,33.6373 39.4214,32.9707 41.5,32.5 Z"/></g>
<g><path style="opacity:0.998" fill="#f0e9f3" d="M 35.5,34.5 C 47.3217,35.4951 59.3217,35.8284 71.5,35.5C 72.609,35.5569 73.609,35.8902 74.5,36.5C 73.3754,37.0141 72.2087,37.3474 71,37.5C 58.0687,36.842 45.2353,36.1754 32.5,35.5C 33.391,34.8902 34.391,34.5569 35.5,34.5 Z"/></g>
<g><path style="opacity:0.982" fill="#ebe3ef" d="M 32.5,35.5 C 45.2353,36.1754 58.0687,36.842 71,37.5C 72.2087,37.3474 73.3754,37.0141 74.5,36.5C 75.7095,36.9321 76.7095,37.5987 77.5,38.5C 61.4225,38.8175 45.4225,38.4841 29.5,37.5C 30.2905,36.5987 31.2905,35.9321 32.5,35.5 Z"/></g>
<g><path style="opacity:0.978" fill="#e6dcec" d="M 29.5,37.5 C 45.4225,38.4841 61.4225,38.8175 77.5,38.5C 77.8333,38.5 78.1667,38.5 78.5,38.5C 61.0079,39.4967 43.3412,39.8301 25.5,39.5C 26.5137,38.3263 27.847,37.6596 29.5,37.5 Z"/></g>
<g><path style="opacity:0.99" fill="#e3d8e9" d="M 78.5,38.5 C 79.1667,38.8333 79.8333,39.1667 80.5,39.5C 80.631,40.2389 80.4643,40.9056 80,41.5C 61.2692,40.7045 42.4359,40.3712 23.5,40.5C 23.8417,39.6618 24.5084,39.3284 25.5,39.5C 43.3412,39.8301 61.0079,39.4967 78.5,38.5 Z"/></g>
<g><path style="opacity:0.959" fill="#ded1e6" d="M 80.5,39.5 C 82.2303,40.0256 83.5637,41.0256 84.5,42.5C 63.1667,42.5 41.8333,42.5 20.5,42.5C 20.9731,41.0937 21.9731,40.427 23.5,40.5C 42.4359,40.3712 61.2692,40.7045 80,41.5C 80.4643,40.9056 80.631,40.2389 80.5,39.5 Z"/></g>
<g><path style="opacity:0.95" fill="#d1bfdd" d="M 18.5,43.5 C 41.3273,44.4975 64.3273,44.8308 87.5,44.5C 88.7095,44.9321 89.7095,45.5987 90.5,46.5C 65.1667,46.5 39.8333,46.5 14.5,46.5C 15.795,45.5116 17.1283,44.5116 18.5,43.5 Z"/></g>
<g><path style="opacity:0.999" fill="#d7c8e1" d="M 20.5,42.5 C 41.8333,42.5 63.1667,42.5 84.5,42.5C 86.0269,42.427 87.0269,43.0937 87.5,44.5C 64.3273,44.8308 41.3273,44.4975 18.5,43.5C 18.8417,42.6618 19.5084,42.3284 20.5,42.5 Z"/></g>
<g><path style="opacity:0.995" fill="#ccb8d9" d="M 13.5,47.5 C 13.5,46.8333 13.8333,46.5 14.5,46.5C 39.8333,46.5 65.1667,46.5 90.5,46.5C 91.5,46.8333 92.1667,47.5 92.5,48.5C 66.3777,47.5575 40.0443,47.2241 13.5,47.5 Z"/></g>
<g><path style="opacity:0.998" fill="#c7b2d6" d="M 13.5,47.5 C 40.0443,47.2241 66.3777,47.5575 92.5,48.5C 65.6718,49.4979 38.6718,49.8312 11.5,49.5C 11.8333,48.5 12.5,47.8333 13.5,47.5 Z"/></g>
<g><path style="opacity:0.983" fill="#c2abd2" d="M 92.5,48.5 C 93.5,48.8333 94.1667,49.5 94.5,50.5C 66.5,50.5 38.5,50.5 10.5,50.5C 10.5,49.8333 10.8333,49.5 11.5,49.5C 38.6718,49.8312 65.6718,49.4979 92.5,48.5 Z"/></g>
<g><path style="opacity:0.985" fill="#bea5cf" d="M 9.5,51.5 C 9.5,50.8333 9.83333,50.5 10.5,50.5C 38.5,50.5 66.5,50.5 94.5,50.5C 95.5,50.8333 96.1667,51.5 96.5,52.5C 67.4262,52.8247 38.4262,52.4914 9.5,51.5 Z"/></g>
<g><path style="opacity:0.997" fill="#b99ecb" d="M 9.5,51.5 C 38.4262,52.4914 67.4262,52.8247 96.5,52.5C 67.0047,53.4981 37.338,53.8314 7.5,53.5C 7.83333,52.5 8.5,51.8333 9.5,51.5 Z"/></g>
<g><path style="opacity:0.999" fill="#b498c8" d="M 96.5,52.5 C 97.9063,52.9731 98.573,53.9731 98.5,55.5C 67.0014,55.4096 36.3348,55.0763 6.5,54.5C 6.5,53.8333 6.83333,53.5 7.5,53.5C 37.338,53.8314 67.0047,53.4981 96.5,52.5 Z"/></g>
<g><path style="opacity:0.986" fill="#ae90c4" d="M 6.5,54.5 C 36.3348,55.0763 67.0014,55.4096 98.5,55.5C 99.5,55.8333 100.167,56.5 100.5,57.5C 68.5,57.5 36.5,57.5 4.5,57.5C 5.16667,56.5 5.83333,55.5 6.5,54.5 Z"/></g>
<g><path style="opacity:0.999" fill="#a786bf" d="M 4.5,57.5 C 36.5,57.5 68.5,57.5 100.5,57.5C 96.2175,58.8266 91.5508,59.4933 86.5,59.5C 58.6976,59.132 31.031,59.132 3.5,59.5C 3.83333,58.8333 4.16667,58.1667 4.5,57.5 Z"/></g>
<g><path style="opacity:1" fill="#a280bb" d="M 100.5,57.5 C 101.401,58.2905 102.068,59.2905 102.5,60.5C 69.1667,60.5 35.8333,60.5 2.5,60.5C 2.5,59.8333 2.83333,59.5 3.5,59.5C 31.031,59.132 58.6976,59.132 86.5,59.5C 91.5508,59.4933 96.2175,58.8266 100.5,57.5 Z"/></g>
<g><path style="opacity:0.992" fill="#9d79b8" d="M 2.5,60.5 C 35.8333,60.5 69.1667,60.5 102.5,60.5C 102.833,61.1667 103.167,61.8333 103.5,62.5C 69.5,62.5 35.5,62.5 1.5,62.5C 1.83333,61.8333 2.16667,61.1667 2.5,60.5 Z"/></g>
<g><path style="opacity:1" fill="#966fb3" d="M 1.5,62.5 C 35.5,62.5 69.5,62.5 103.5,62.5C 103.833,63.1667 104.167,63.8333 104.5,64.5C 69.8333,64.5 35.1667,64.5 0.5,64.5C 0.833333,63.8333 1.16667,63.1667 1.5,62.5 Z"/></g>
<g><path style="opacity:0.988" fill="#9269b0" d="M 0.5,65.5 C 0.5,65.1667 0.5,64.8333 0.5,64.5C 35.1667,64.5 69.8333,64.5 104.5,64.5C 104.5,64.8333 104.5,65.1667 104.5,65.5C 69.9002,65.7447 35.2336,65.7447 0.5,65.5 Z"/></g>
<g><path style="opacity:0.999" fill="#8c62ac" d="M 0.5,65.5 C 35.2336,65.7447 69.9002,65.7447 104.5,65.5C 104.5,66.1667 104.833,66.5 105.5,66.5C 105.5,66.8333 105.5,67.1667 105.5,67.5C 70.1667,67.5 34.8333,67.5 -0.5,67.5C -0.5,67.1667 -0.5,66.8333 -0.5,66.5C 0.166667,66.5 0.5,66.1667 0.5,65.5 Z"/></g>
<g><path style="opacity:0.988" fill="#8153a4" d="M -0.5,68.5 C 34.7604,69.493 70.0937,69.8263 105.5,69.5C 105.5,69.8333 105.5,70.1667 105.5,70.5C 70.1667,70.5 34.8333,70.5 -0.5,70.5C -0.5,69.8333 -0.5,69.1667 -0.5,68.5 Z"/></g>
<g><path style="opacity:1" fill="#8559a7" d="M -0.5,68.5 C -0.5,68.1667 -0.5,67.8333 -0.5,67.5C 34.8333,67.5 70.1667,67.5 105.5,67.5C 105.5,68.1667 105.5,68.8333 105.5,69.5C 70.0937,69.8263 34.7604,69.493 -0.5,68.5 Z"/></g>
<g><path style="opacity:0.999" fill="#7e4ea2" d="M -0.5,70.5 C 34.8333,70.5 70.1667,70.5 105.5,70.5C 105.5,70.8333 105.5,71.1667 105.5,71.5C 70.0937,71.1737 34.7604,71.507 -0.5,72.5C -0.5,71.8333 -0.5,71.1667 -0.5,70.5 Z"/></g>
<g><path style="opacity:0.999" fill="#79489e" d="M 105.5,71.5 C 105.5,72.1667 105.5,72.8333 105.5,73.5C 70.1667,73.5 34.8333,73.5 -0.5,73.5C -0.5,73.1667 -0.5,72.8333 -0.5,72.5C 34.7604,71.507 70.0937,71.1737 105.5,71.5 Z"/></g>
<g><path style="opacity:0.999" fill="#723e99" d="M -0.5,73.5 C 34.8333,73.5 70.1667,73.5 105.5,73.5C 105.5,74.1667 105.5,74.8333 105.5,75.5C 70.0263,75.1531 34.6929,75.1531 -0.5,75.5C -0.5,74.8333 -0.5,74.1667 -0.5,73.5 Z"/></g>
<g><path style="opacity:0.999" fill="#6d3795" d="M 105.5,75.5 C 105.5,76.1667 105.5,76.8333 105.5,77.5C 70.1667,77.5 34.8333,77.5 -0.5,77.5C -0.5,76.8333 -0.5,76.1667 -0.5,75.5C 34.6929,75.1531 70.0263,75.1531 105.5,75.5 Z"/></g>
<g><path style="opacity:0.994" fill="#662e90" d="M -0.5,77.5 C 34.8333,77.5 70.1667,77.5 105.5,77.5C 105.5,77.8333 105.5,78.1667 105.5,78.5C 70.2727,79.3902 34.9394,79.7236 -0.5,79.5C -0.5,78.8333 -0.5,78.1667 -0.5,77.5 Z"/></g>
<g><path style="opacity:0.99" fill="#61278d" d="M 105.5,78.5 C 105.5,79.1667 105.5,79.8333 105.5,80.5C 105.167,80.5 104.833,80.5 104.5,80.5C 69.8333,80.5 35.1667,80.5 0.5,80.5C 0.166667,80.5 -0.166667,80.5 -0.5,80.5C -0.5,80.1667 -0.5,79.8333 -0.5,79.5C 34.9394,79.7236 70.2727,79.3902 105.5,78.5 Z"/></g>
<g><path style="opacity:0.999" fill="#5d228a" d="M 0.5,80.5 C 35.1667,80.5 69.8333,80.5 104.5,80.5C 104.672,81.4916 104.338,82.1583 103.5,82.5C 69.5,81.1667 35.5,81.1667 1.5,82.5C 0.661754,82.1583 0.32842,81.4916 0.5,80.5 Z"/></g>
<g><path style="opacity:0.972" fill="#591c87" d="M 1.5,82.5 C 35.5,81.1667 69.5,81.1667 103.5,82.5C 103.167,83.5 102.5,84.1667 101.5,84.5C 96.8137,83.7595 91.9804,83.0928 87,82.5C 78.0063,82.9614 68.8397,83.2947 59.5,83.5C 54.4053,83.2213 49.4053,83.5546 44.5,84.5C 30.295,83.8011 15.9617,83.1345 1.5,82.5 Z"/></g>
<g><path style="opacity:0.999" fill="#541583" d="M 1.5,82.5 C 15.9617,83.1345 30.295,83.8011 44.5,84.5C 41.7628,84.4013 39.0961,84.7347 36.5,85.5C 25.6794,84.5054 14.6794,84.1721 3.5,84.5C 2.5,84.1667 1.83333,83.5 1.5,82.5 Z"/></g>
<g><path style="opacity:1" fill="#541583" d="M 101.5,84.5 C 101.5,85.1667 101.167,85.5 100.5,85.5C 89.3456,84.5052 78.0123,84.1719 66.5,84.5C 63.9407,84.8016 61.6074,84.4682 59.5,83.5C 68.8397,83.2947 78.0063,82.9614 87,82.5C 91.9804,83.0928 96.8137,83.7595 101.5,84.5 Z"/></g>
<g><path style="opacity:0.918" fill="#4e0e80" d="M 3.5,84.5 C 14.6794,84.1721 25.6794,84.5054 36.5,85.5C 32.9601,85.7526 29.6267,86.4192 26.5,87.5C 20.1667,87.5 13.8333,87.5 7.5,87.5C 6.16667,86.5 4.83333,85.5 3.5,84.5 Z"/></g>
<g><path style="opacity:0.905" fill="#4e0e80" d="M 66.5,84.5 C 78.0123,84.1719 89.3456,84.5052 100.5,85.5C 99.5,86.1667 98.5,86.8333 97.5,87.5C 91.1667,87.5 84.8333,87.5 78.5,87.5C 74.5,86.5 70.5,85.5 66.5,84.5 Z"/></g>
</svg>
