<?xml version="1.0" encoding="UTF-8"?>
<svg version="1.1" xmlns="http://www.w3.org/2000/svg" width="106" height="88">
<path d="M0 0 C1.05574219 0.474375 2.11148438 0.94875 3.19921875 1.4375 C15.16023544 7.32600053 25.22616086 15.76767675 31 28 C32.9055174 33.7165522 33.5311955 41.64201141 30.98828125 47.21875 C28.89574431 49.78257905 27.13659649 50.95446784 24 52 C14.24829714 52.52385181 4.80850519 52.19817009 -4.8125 50.5 C-15.95932391 48.56014551 -26.04072687 48.56413003 -37.1875 50.5 C-43.91303622 51.6654137 -50.48294793 52.35228871 -57.3125 52.4375 C-58.09455811 52.45941406 -58.87661621 52.48132813 -59.68237305 52.50390625 C-64.89770927 52.48574423 -67.87586539 51.45029718 -72 48 C-75.42410525 42.86384213 -74.60421844 36.98433366 -74 31 C-70.60902424 19.23035112 -60.27494827 9.97788598 -50 4 C-33.81020154 -4.35540254 -17.14373017 -7.88001825 0 0 Z " fill="#FFFDFD" transform="translate(74,36)"/>
<path d="M0 0 C3.71168084 0.96768822 5.55692692 2.80821076 8.1875 5.5703125 C10.03492851 9.26516952 9.52533754 13.52901055 9.1875 17.5703125 C7.76891443 21.49228438 6.54089191 22.35963655 2.9375 24.5078125 C-1.55597386 25.78096343 -3.56108326 25.41526693 -7.8125 23.5703125 C-10.71240437 21.12828777 -12.56969704 19.25149252 -13.12109375 15.43359375 C-13.35880829 10.72972725 -13.24232748 7.31858084 -10.375 3.4453125 C-7.17867827 0.25654709 -4.43966127 -0.34497368 0 0 Z " fill="#FFFFFF" transform="translate(54.8125,-0.5703125)"/>
</svg>
